<svg xmlns="http://www.w3.org/2000/svg" width="43.863" height="31.169" viewBox="0 0 43.863 31.169"><g transform="translate(-1.112 -24.201)"><path d="M17.429,24.2c-9.011,0-16.317,5.392-16.317,12.043,0,4.02,2.679,7.571,6.781,9.758l-1.7,6,6.2-4.306a21.628,21.628,0,0,0,5.036.591c9.012,0,16.317-5.392,16.317-12.043S26.44,24.2,17.429,24.2Zm-7.18,14.065a1.814,1.814,0,1,1,1.814-1.814A1.814,1.814,0,0,1,10.249,38.266Zm7.515,0a1.814,1.814,0,1,1,1.814-1.814A1.814,1.814,0,0,1,17.764,38.266Zm7.515,0a1.814,1.814,0,1,1,1.814-1.814A1.814,1.814,0,0,1,25.28,38.266Z" transform="translate(0)" fill="#dfa4d4"/><path d="M93.216,63.766c0-4.327-3.91-7.976-9.263-9.139a11.135,11.135,0,0,1,.287,2.484c0,6.329-5.372,11.707-12.789,13.583A15.568,15.568,0,0,0,80.3,73.3a17.111,17.111,0,0,0,3.986-.468l4.91,3.408-1.348-4.748C91.1,69.758,93.216,66.948,93.216,63.766Z" transform="translate(-48.24 -20.867)" fill="#dfa4d4"/></g></svg>