<svg xmlns="http://www.w3.org/2000/svg" width="33.621" height="25.375" viewBox="0 0 33.621 25.375"><g transform="translate(-2.772 -21.945)"><path d="M35.67,53.372H10.982a.911.911,0,0,0-.8.513L2.866,69.936a.741.741,0,0,0,.63,1.121H27.52a.912.912,0,0,0,.8-.513L36.3,54.493A.741.741,0,0,0,35.67,53.372Z" transform="translate(0 -23.736)" fill="#9f9f9f"/><path d="M2.773,43.084,7.211,28.56S8.018,27.08,9.3,27.013H30.342l.279-1.157s.2-1.079-1.128-1.251H14.31l-.638-1.447a3.589,3.589,0,0,0-2.036-1.2H4.524S3.175,21.71,2.773,23.6Z" transform="translate(0 0)" fill="#9f9f9f"/></g></svg>